<svg id="visual" viewBox="0 0 900 600" width="900" height="600" xmlns="http://www.w3.org/2000/svg" xmlns:xlink="http://www.w3.org/1999/xlink" version="1.1"><rect width="900" height="600" fill="#001220"></rect><g><g transform="translate(427 130)"><path d="M0 -103.3L89.5 -51.7L89.5 51.7L0 103.3L-89.5 51.7L-89.5 -51.7Z" fill="none" stroke="#A7233A" stroke-width="15"></path></g><g transform="translate(762 288)"><path d="M0 -54L46.8 -27L46.8 27L0 54L-46.8 27L-46.8 -27Z" fill="none" stroke="#A7233A" stroke-width="15"></path></g><g transform="translate(160 21)"><path d="M0 -78L67.5 -39L67.5 39L0 78L-67.5 39L-67.5 -39Z" fill="none" stroke="#A7233A" stroke-width="15"></path></g><g transform="translate(234 478)"><path d="M0 -66L57.2 -33L57.2 33L0 66L-57.2 33L-57.2 -33Z" stroke="#A7233A" fill="none" stroke-width="15"></path></g><g transform="translate(16 349)"><path d="M0 -51L44.2 -25.5L44.2 25.5L0 51L-44.2 25.5L-44.2 -25.5Z" stroke="#A7233A" fill="none" stroke-width="15"></path></g><g transform="translate(515 405)"><path d="M0 -57L49.4 -28.5L49.4 28.5L0 57L-49.4 28.5L-49.4 -28.5Z" stroke="#A7233A" fill="none" stroke-width="15"></path></g></g></svg>